<svg width="24" height="20" viewBox="0 0 24 20" fill="none" xmlns="http://www.w3.org/2000/svg">
<path fill-rule="evenodd" clip-rule="evenodd" d="M14.6146 0.583803C15.6156 0.201759 16.7097 0.136343 17.749 0.396402C18.6237 0.615247 19.424 1.0557 20.0747 1.67156C20.9604 1.36109 21.7995 0.929012 22.5677 0.387174C22.8231 0.206974 23.1636 0.20414 23.422 0.380063C23.6804 0.555986 23.8026 0.87376 23.7287 1.17751C23.3872 2.57956 22.6938 3.86898 21.7167 4.92513C21.7382 5.11509 21.7493 5.30619 21.75 5.49757L21.75 5.50005C21.75 11.5125 18.8598 15.9001 14.7273 18.0996C10.6131 20.2894 5.34311 20.2709 0.635723 17.6557C0.332115 17.487 0.18403 17.1319 0.277817 16.7975C0.371603 16.4631 0.682723 16.2368 1.02976 16.2506C2.914 16.3256 4.77751 15.9098 6.4414 15.0545C4.75899 14.0982 3.5824 12.9366 2.78822 11.6826C1.81284 10.1425 1.44275 8.50847 1.37573 7.0341C1.30886 5.56301 1.54263 4.23547 1.78947 3.28101C1.91334 2.80203 2.04175 2.41228 2.14034 2.13958C2.18968 2.0031 2.23168 1.89559 2.2621 1.82049C2.27732 1.78294 2.28965 1.75345 2.29857 1.73247L2.30934 1.70743L2.31268 1.69978L2.31382 1.6972L2.31425 1.69622C2.31443 1.69581 2.3146 1.69544 2.99996 2.00005L2.3146 1.69544C2.42433 1.44854 2.65839 1.27974 2.92731 1.25357C3.19623 1.2274 3.45844 1.3479 3.61372 1.56901C4.55296 2.90643 5.80837 3.99081 7.26816 4.72557C8.50991 5.35058 9.86676 5.70612 11.25 5.7723V5.53485C11.2367 4.46538 11.5516 3.41751 12.1524 2.53252C12.7542 1.64609 13.6136 0.965847 14.6146 0.583803ZM3.27256 3.53962C3.26226 3.57788 3.25196 3.61687 3.24169 3.65658C3.01978 4.51462 2.81605 5.68708 2.87418 6.96599C2.93217 8.24162 3.24958 9.60758 4.05544 10.88C4.8583 12.1477 6.17449 13.368 8.30456 14.3147C8.55341 14.4253 8.72276 14.6621 8.74698 14.9333C8.7712 15.2046 8.6465 15.4676 8.42118 15.6206C7.07546 16.5341 5.57174 17.1679 3.9987 17.4969C7.51779 18.644 11.1191 18.3209 14.0226 16.7755C17.6398 14.8502 20.2495 10.9882 20.25 5.5014C20.2491 5.26966 20.2268 5.03849 20.1833 4.81086C20.1363 4.56496 20.2151 4.31183 20.3933 4.13604C20.8251 3.71027 21.1973 3.23211 21.5024 2.7148C21.0399 2.92319 20.5635 3.10146 20.0762 3.24819C19.7937 3.33325 19.4876 3.24482 19.294 3.02222C18.7926 2.44567 18.1262 2.03701 17.3849 1.85154C16.6437 1.66607 15.8634 1.71272 15.1495 1.9852C14.4356 2.25767 13.8226 2.74281 13.3935 3.37501C12.9643 4.0072 12.7396 4.75595 12.7499 5.51999L12.75 5.53005H12.75V6.53005C12.75 6.93669 12.4259 7.26925 12.0194 7.27979C10.1384 7.32857 8.27451 6.91139 6.59377 6.06542C5.33726 5.43297 4.21226 4.57556 3.27256 3.53962Z" fill="black"/>
</svg>
