<svg width="22" height="22" viewBox="0 0 22 22" fill="none" xmlns="http://www.w3.org/2000/svg">
<path d="M19 21.7C18.9 21.7 18.8 21.7 18.8 21.7C15.6 21.4 12.5 20.2999 9.8 18.5C7.3 16.9 5.2 14.8 3.6 12.3C1.9 9.59995 0.8 6.49995 0.4 3.29995C0.3 2.49995 0.5 1.79995 1 1.19995C1.5 0.599951 2.1 0.299951 2.9 0.199951C3 0.199951 3.1 0.199951 3.1 0.199951H6.1C7.5 0.199951 8.6 1.19995 8.8 2.59995C8.9 3.49995 9.1 4.39995 9.5 5.29995C9.9 6.29995 9.6 7.39995 8.9 8.19995L8 8.99995C9.2 11 10.9 12.7 12.9 13.9L13.8 13C14.6 12.2 15.7 12 16.7 12.4C17.6 12.7 18.4 12.9 19.3 13.1C20.7 13.3 21.7 14.5 21.7 15.9V18.9C21.7 19.6 21.4 20.2999 20.9 20.7999C20.4 21.4 19.7 21.7 19 21.7ZM6.1 1.79995H3C2.7 1.79995 2.4 1.99995 2.2 2.19995C1.9 2.49995 1.8 2.79995 1.9 3.09995C2.2 5.99995 3.2 8.89995 4.9 11.4C6.4 13.7 8.4 15.7 10.7 17.2C13.2 18.8 16.1 19.8 19 20.2H19.1C19.4 20.2 19.8 20.0999 20 19.7999C20.2 19.5999 20.4 19.1999 20.4 18.9V15.9C20.4 15.3 20 14.7 19.3 14.6C18.3 14.5 17.3 14.2 16.3 13.9C15.8 13.7 15.3 13.8 15 14.2L13.7 15.5C13.5 15.7 13.1 15.8 12.8 15.6C10.2 14.1 8 11.9 6.5 9.29995C6.3 8.99995 6.3 8.59995 6.6 8.39995L7.9 7.09995C8.2 6.79995 8.3 6.19995 8.2 5.79995C7.8 4.79995 7.6 3.79995 7.5 2.79995C7.3 2.19995 6.7 1.79995 6.1 1.79995Z" fill="black"/>
</svg>
